<mxfile host="app.diagrams.net" agent="Mozilla/5.0 (X11; CrOS x86_64 14541.0.0) AppleWebKit/537.36 (KHTML, like Gecko) Chrome/129.0.0.0 Safari/537.36" version="24.7.17">
  <diagram id="2RAkf9iS2bYrb-5zrusB" name="Page-1">
    <mxGraphModel dx="2948" dy="2448" grid="1" gridSize="10" guides="1" tooltips="1" connect="1" arrows="1" fold="1" page="1" pageScale="1" pageWidth="850" pageHeight="1100" math="0" shadow="0">
      <root>
        <mxCell id="0" />
        <mxCell id="1" parent="0" />
        <mxCell id="EpLoNu7SxfJ4iQwhgqlz-4" style="edgeStyle=orthogonalEdgeStyle;rounded=0;orthogonalLoop=1;jettySize=auto;html=1;exitX=1;exitY=0.5;exitDx=0;exitDy=0;entryX=0;entryY=0.5;entryDx=0;entryDy=0;endArrow=block;endFill=1;" parent="1" source="EpLoNu7SxfJ4iQwhgqlz-2" target="EpLoNu7SxfJ4iQwhgqlz-3" edge="1">
          <mxGeometry relative="1" as="geometry" />
        </mxCell>
        <mxCell id="EpLoNu7SxfJ4iQwhgqlz-6" value="" style="edgeStyle=orthogonalEdgeStyle;rounded=0;orthogonalLoop=1;jettySize=auto;html=1;endArrow=block;endFill=1;curved=1;entryX=0.449;entryY=0.017;entryDx=0;entryDy=0;entryPerimeter=0;" parent="1" source="EpLoNu7SxfJ4iQwhgqlz-2" target="zcjgjJbBtfx0ok88irLS-6" edge="1">
          <mxGeometry relative="1" as="geometry">
            <mxPoint x="-388.1111111111113" y="-700" as="targetPoint" />
          </mxGeometry>
        </mxCell>
        <mxCell id="EpLoNu7SxfJ4iQwhgqlz-37" style="edgeStyle=orthogonalEdgeStyle;curved=1;rounded=0;orthogonalLoop=1;jettySize=auto;html=1;exitX=0.5;exitY=1;exitDx=0;exitDy=0;endArrow=block;endFill=1;entryX=0.5;entryY=0;entryDx=0;entryDy=0;" parent="1" source="EpLoNu7SxfJ4iQwhgqlz-2" target="zcjgjJbBtfx0ok88irLS-8" edge="1">
          <mxGeometry relative="1" as="geometry">
            <mxPoint x="-160" y="-720" as="targetPoint" />
          </mxGeometry>
        </mxCell>
        <mxCell id="EpLoNu7SxfJ4iQwhgqlz-2" value="&lt;b&gt;Top-Claim C1:&lt;br&gt;&lt;/b&gt;The IDS/IPS rules implemented in Suricata can detect the malware signatures Emotet in real-time." style="rounded=0;whiteSpace=wrap;html=1;" parent="1" vertex="1">
          <mxGeometry x="-410" y="-840" width="160" height="100" as="geometry" />
        </mxCell>
        <mxCell id="EpLoNu7SxfJ4iQwhgqlz-3" value="&lt;b&gt;Context: CT1&lt;/b&gt;&lt;br&gt;The system is properly configured with accurate and up-to-date rulesets." style="rounded=1;whiteSpace=wrap;html=1;arcSize=30;" parent="1" vertex="1">
          <mxGeometry x="-145" y="-825" width="155" height="70" as="geometry" />
        </mxCell>
        <mxCell id="EpLoNu7SxfJ4iQwhgqlz-9" style="edgeStyle=orthogonalEdgeStyle;curved=1;rounded=0;orthogonalLoop=1;jettySize=auto;html=1;endArrow=block;endFill=1;exitX=0.5;exitY=1;exitDx=0;exitDy=0;entryX=0;entryY=0;entryDx=98.375;entryDy=0;entryPerimeter=0;" parent="1" source="zcjgjJbBtfx0ok88irLS-6" target="zcjgjJbBtfx0ok88irLS-7" edge="1">
          <mxGeometry relative="1" as="geometry">
            <mxPoint x="-380" y="-610" as="sourcePoint" />
            <mxPoint x="-331.15296296296304" y="-590" as="targetPoint" />
          </mxGeometry>
        </mxCell>
        <mxCell id="EpLoNu7SxfJ4iQwhgqlz-12" style="edgeStyle=orthogonalEdgeStyle;curved=1;rounded=0;orthogonalLoop=1;jettySize=auto;html=1;exitX=0.5;exitY=1;exitDx=0;exitDy=0;endArrow=block;endFill=1;exitPerimeter=0;entryX=0.5;entryY=0;entryDx=0;entryDy=0;" parent="1" source="zcjgjJbBtfx0ok88irLS-7" target="NRTWiq4-zaDcEtuE9q8b-6" edge="1">
          <mxGeometry relative="1" as="geometry">
            <mxPoint x="-330" y="-510" as="sourcePoint" />
            <mxPoint x="-460" y="-460" as="targetPoint" />
          </mxGeometry>
        </mxCell>
        <mxCell id="EpLoNu7SxfJ4iQwhgqlz-13" style="edgeStyle=orthogonalEdgeStyle;curved=1;rounded=0;orthogonalLoop=1;jettySize=auto;html=1;endArrow=block;endFill=1;exitX=0.5;exitY=1;exitDx=0;exitDy=0;entryX=0;entryY=0;entryDx=81.5;entryDy=0;entryPerimeter=0;" parent="1" source="zcjgjJbBtfx0ok88irLS-8" target="EpLoNu7SxfJ4iQwhgqlz-11" edge="1">
          <mxGeometry relative="1" as="geometry">
            <mxPoint x="-340.04" y="-520" as="sourcePoint" />
            <mxPoint x="-260" y="-560" as="targetPoint" />
          </mxGeometry>
        </mxCell>
        <mxCell id="EpLoNu7SxfJ4iQwhgqlz-10" value="&lt;b&gt;Rebuttal R1&lt;/b&gt;: Unless network congestion or performance issues cause delays in detection or missed packets." style="shape=note;whiteSpace=wrap;html=1;backgroundOutline=1;darkOpacity=0.05;size=17;fillColor=#FFF2CC;" parent="1" vertex="1">
          <mxGeometry x="-810" y="-572.5" width="190" height="85" as="geometry" />
        </mxCell>
        <mxCell id="EpLoNu7SxfJ4iQwhgqlz-17" style="edgeStyle=orthogonalEdgeStyle;curved=1;rounded=0;orthogonalLoop=1;jettySize=auto;html=1;endArrow=block;endFill=1;exitX=0.5;exitY=1;exitDx=0;exitDy=0;exitPerimeter=0;entryX=0.5;entryY=0;entryDx=0;entryDy=0;" parent="1" source="EpLoNu7SxfJ4iQwhgqlz-11" target="NRTWiq4-zaDcEtuE9q8b-8" edge="1">
          <mxGeometry relative="1" as="geometry">
            <mxPoint x="-260.00296296296307" y="-490" as="sourcePoint" />
            <mxPoint x="-220" y="-460" as="targetPoint" />
          </mxGeometry>
        </mxCell>
        <mxCell id="EpLoNu7SxfJ4iQwhgqlz-11" value="&lt;b&gt;Rebuttal R3&lt;/b&gt;: Unless the configuration of Suricata is misapplied, causing it to ignore or fail to detect Emotet traffic." style="shape=note;whiteSpace=wrap;html=1;backgroundOutline=1;darkOpacity=0.05;size=17;fillColor=#FFF2CC;" parent="1" vertex="1">
          <mxGeometry x="-340" y="-570" width="180" height="80" as="geometry" />
        </mxCell>
        <mxCell id="EpLoNu7SxfJ4iQwhgqlz-21" style="edgeStyle=orthogonalEdgeStyle;curved=1;rounded=0;orthogonalLoop=1;jettySize=auto;html=1;endArrow=block;endFill=1;exitX=0.5;exitY=1;exitDx=0;exitDy=0;entryX=0.5;entryY=0;entryDx=0;entryDy=0;" parent="1" source="EpLoNu7SxfJ4iQwhgqlz-2" target="EpLoNu7SxfJ4iQwhgqlz-14" edge="1">
          <mxGeometry relative="1" as="geometry">
            <mxPoint x="-650" y="-420" as="targetPoint" />
          </mxGeometry>
        </mxCell>
        <mxCell id="EpLoNu7SxfJ4iQwhgqlz-14" value="&lt;b&gt;Sub-Claim C2:&lt;br&gt;&lt;/b&gt;The Suricata system processes traffic in real-time and triggers alerts for Emotet activity" style="rounded=0;whiteSpace=wrap;html=1;" parent="1" vertex="1">
          <mxGeometry x="-750" y="-690" width="170" height="80" as="geometry" />
        </mxCell>
        <mxCell id="EpLoNu7SxfJ4iQwhgqlz-27" style="edgeStyle=orthogonalEdgeStyle;curved=1;rounded=0;orthogonalLoop=1;jettySize=auto;html=1;endArrow=block;endFill=1;exitX=0.5;exitY=1;exitDx=0;exitDy=0;exitPerimeter=0;" parent="1" edge="1" source="zcjgjJbBtfx0ok88irLS-17">
          <mxGeometry relative="1" as="geometry">
            <mxPoint x="-430" y="160" as="sourcePoint" />
            <mxPoint x="30" y="-310" as="targetPoint" />
          </mxGeometry>
        </mxCell>
        <mxCell id="EpLoNu7SxfJ4iQwhgqlz-23" style="edgeStyle=orthogonalEdgeStyle;curved=1;rounded=0;orthogonalLoop=1;jettySize=auto;html=1;entryX=0.5;entryY=0;entryDx=0;entryDy=0;endArrow=block;endFill=1;" parent="1" source="EpLoNu7SxfJ4iQwhgqlz-18" target="EpLoNu7SxfJ4iQwhgqlz-22" edge="1">
          <mxGeometry relative="1" as="geometry" />
        </mxCell>
        <mxCell id="EpLoNu7SxfJ4iQwhgqlz-18" value="&lt;b&gt;Evidence E1&lt;/b&gt;:&lt;br&gt;Automatic updates of&amp;nbsp; domains, malicious IP addresses, and distinctive traffic patterns associated with Emotet infections" style="ellipse;whiteSpace=wrap;html=1;aspect=fixed;fillColor=#ffffff;rounded=0;" parent="1" vertex="1">
          <mxGeometry x="-553.75" y="-317.5" width="157.5" height="157.5" as="geometry" />
        </mxCell>
        <mxCell id="EpLoNu7SxfJ4iQwhgqlz-25" style="edgeStyle=orthogonalEdgeStyle;curved=1;rounded=0;orthogonalLoop=1;jettySize=auto;html=1;entryX=0.5;entryY=0;entryDx=0;entryDy=0;endArrow=block;endFill=1;" parent="1" source="EpLoNu7SxfJ4iQwhgqlz-19" target="EpLoNu7SxfJ4iQwhgqlz-24" edge="1">
          <mxGeometry relative="1" as="geometry" />
        </mxCell>
        <mxCell id="EpLoNu7SxfJ4iQwhgqlz-19" value="&lt;b&gt;Evidence E2:&lt;/b&gt;&lt;br&gt;Configure the system to use multi-threading and distributed processing, for CPU and memory resources used to prevent network bottlenecks, packet drops, or buffer overflows." style="ellipse;whiteSpace=wrap;html=1;aspect=fixed;fillColor=#ffffff;rounded=0;" parent="1" vertex="1">
          <mxGeometry x="-845" y="-317.5" width="177.5" height="177.5" as="geometry" />
        </mxCell>
        <mxCell id="EpLoNu7SxfJ4iQwhgqlz-22" value="" style="ellipse;whiteSpace=wrap;html=1;aspect=fixed;fillColor=#CCCCCC;" parent="1" vertex="1">
          <mxGeometry x="-490" y="-135" width="30" height="30" as="geometry" />
        </mxCell>
        <mxCell id="EpLoNu7SxfJ4iQwhgqlz-24" value="" style="ellipse;whiteSpace=wrap;html=1;aspect=fixed;fillColor=#CCCCCC;" parent="1" vertex="1">
          <mxGeometry x="-771.25" y="-110" width="30" height="30" as="geometry" />
        </mxCell>
        <mxCell id="EpLoNu7SxfJ4iQwhgqlz-26" value="&lt;b&gt;Evidence E3:&lt;/b&gt;&lt;br&gt;&amp;nbsp;SSL/TLS selective decryption features;&amp;nbsp;&lt;br&gt;&lt;div&gt;tls.store” and “tls.log&lt;br&gt;&lt;/div&gt;" style="ellipse;whiteSpace=wrap;html=1;aspect=fixed;fillColor=#ffffff;rounded=0;" parent="1" vertex="1">
          <mxGeometry x="-50" y="-190" width="140" height="140" as="geometry" />
        </mxCell>
        <mxCell id="EpLoNu7SxfJ4iQwhgqlz-39" style="edgeStyle=orthogonalEdgeStyle;curved=1;rounded=0;orthogonalLoop=1;jettySize=auto;html=1;endArrow=block;endFill=1;exitX=0.5;exitY=1;exitDx=0;exitDy=0;entryX=0.5;entryY=0;entryDx=0;entryDy=0;entryPerimeter=0;" parent="1" source="EpLoNu7SxfJ4iQwhgqlz-2" target="zcjgjJbBtfx0ok88irLS-14" edge="1">
          <mxGeometry relative="1" as="geometry">
            <mxPoint x="-20" y="-360" as="targetPoint" />
          </mxGeometry>
        </mxCell>
        <mxCell id="EpLoNu7SxfJ4iQwhgqlz-41" style="edgeStyle=orthogonalEdgeStyle;curved=1;rounded=0;orthogonalLoop=1;jettySize=auto;html=1;endArrow=block;endFill=1;exitX=0.5;exitY=1;exitDx=0;exitDy=0;exitPerimeter=0;" parent="1" source="zcjgjJbBtfx0ok88irLS-14" edge="1">
          <mxGeometry relative="1" as="geometry">
            <mxPoint x="-7.779999999999973" y="-610" as="sourcePoint" />
            <mxPoint x="10" y="-550" as="targetPoint" />
          </mxGeometry>
        </mxCell>
        <mxCell id="zcjgjJbBtfx0ok88irLS-6" value="&lt;b&gt;Sub-Claim C3:&lt;br&gt;&lt;/b&gt;&amp;nbsp;Suricata&#39;s ruleset contains accurate and specific detection signatures for Emotet" style="rounded=0;whiteSpace=wrap;html=1;" parent="1" vertex="1">
          <mxGeometry x="-550" y="-690" width="185" height="80" as="geometry" />
        </mxCell>
        <mxCell id="zcjgjJbBtfx0ok88irLS-7" value="&lt;b&gt;Rebuttal R2&lt;/b&gt;: Unless the ruleset is outdated or does not include the most recent Emotet variants." style="shape=note;whiteSpace=wrap;html=1;backgroundOutline=1;darkOpacity=0.05;size=17;fillColor=#FFF2CC;" parent="1" vertex="1">
          <mxGeometry x="-593.75" y="-575" width="213.75" height="80" as="geometry" />
        </mxCell>
        <mxCell id="zcjgjJbBtfx0ok88irLS-8" value="&lt;b&gt;Sub-Claim C4:&lt;br&gt;&lt;/b&gt;&amp;nbsp;The rules in Suricata are correctly configured and applied to network traffic." style="rounded=0;whiteSpace=wrap;html=1;" parent="1" vertex="1">
          <mxGeometry x="-315" y="-690" width="185" height="80" as="geometry" />
        </mxCell>
        <mxCell id="zcjgjJbBtfx0ok88irLS-9" value="&lt;b&gt;Evidence E2&lt;/b&gt;:&lt;br&gt;Deep packet inspection (DPI) capabilities for detecting Emotet&#39;s traffic over HTTP/S. Custom rules, URI patterns, and SSL/TLS certificate anomalies commonly associated with Emotet" style="ellipse;whiteSpace=wrap;html=1;aspect=fixed;fillColor=#ffffff;rounded=0;" parent="1" vertex="1">
          <mxGeometry x="-330" y="-328.75" width="178.75" height="178.75" as="geometry" />
        </mxCell>
        <mxCell id="zcjgjJbBtfx0ok88irLS-10" style="edgeStyle=orthogonalEdgeStyle;curved=1;rounded=0;orthogonalLoop=1;jettySize=auto;html=1;endArrow=block;endFill=1;exitX=0.546;exitY=1.008;exitDx=0;exitDy=0;exitPerimeter=0;" parent="1" source="zcjgjJbBtfx0ok88irLS-16" edge="1">
          <mxGeometry relative="1" as="geometry">
            <mxPoint y="-490" as="sourcePoint" />
            <mxPoint x="60" y="-460" as="targetPoint" />
          </mxGeometry>
        </mxCell>
        <mxCell id="zcjgjJbBtfx0ok88irLS-18" value="Text" style="edgeLabel;html=1;align=center;verticalAlign=middle;resizable=0;points=[];" parent="zcjgjJbBtfx0ok88irLS-10" vertex="1" connectable="0">
          <mxGeometry x="-1" y="8" relative="1" as="geometry">
            <mxPoint x="-3" y="-7" as="offset" />
          </mxGeometry>
        </mxCell>
        <mxCell id="zcjgjJbBtfx0ok88irLS-11" style="edgeStyle=orthogonalEdgeStyle;curved=1;rounded=0;orthogonalLoop=1;jettySize=auto;html=1;entryX=0.5;entryY=0;entryDx=0;entryDy=0;endArrow=block;endFill=1;exitX=0.5;exitY=1;exitDx=0;exitDy=0;" parent="1" source="zcjgjJbBtfx0ok88irLS-9" target="zcjgjJbBtfx0ok88irLS-12" edge="1">
          <mxGeometry relative="1" as="geometry">
            <mxPoint x="-485" y="525" as="sourcePoint" />
          </mxGeometry>
        </mxCell>
        <mxCell id="zcjgjJbBtfx0ok88irLS-12" value="" style="ellipse;whiteSpace=wrap;html=1;aspect=fixed;fillColor=#CCCCCC;" parent="1" vertex="1">
          <mxGeometry x="-255.62" y="-120" width="30" height="30" as="geometry" />
        </mxCell>
        <mxCell id="zcjgjJbBtfx0ok88irLS-14" value="&lt;b&gt;Rebuttal R3&lt;/b&gt;: Unless Emotet traffic bypass detection via encrypted channels" style="shape=note;whiteSpace=wrap;html=1;backgroundOutline=1;darkOpacity=0.05;size=17;fillColor=#FFF2CC;" parent="1" vertex="1">
          <mxGeometry x="-90" y="-690" width="180" height="80" as="geometry" />
        </mxCell>
        <mxCell id="zcjgjJbBtfx0ok88irLS-16" value="&lt;b&gt;Sub-Claim C5:&lt;br&gt;&lt;/b&gt;TLS/SSL inspection&amp;nbsp;can detect Emotet malware even when traffic is encrypted " style="rounded=0;whiteSpace=wrap;html=1;" parent="1" vertex="1">
          <mxGeometry x="-80" y="-565" width="160" height="70" as="geometry" />
        </mxCell>
        <mxCell id="zcjgjJbBtfx0ok88irLS-17" value="&lt;b&gt;Rebuttal R2&lt;/b&gt;:&amp;nbsp;TLS/SSL inspection introduces performance overhead and may not be feasible in a hospital with high-traffic systems.&amp;nbsp;&lt;span style=&quot;color: rgba(0, 0, 0, 0); font-family: monospace; font-size: 0px; text-align: start; text-wrap: nowrap;&quot;&gt;%3CmxGraphModel%3E%3Croot%3E%3CmxCell%20id%3D%220%22%2F%3E%3CmxCell%20id%3D%221%22%20parent%3D%220%22%2F%3E%3CmxCell%20id%3D%222%22%20value%3D%22Rebuttal%20R2%3A%20Unless%20Tweety%20is%20handicapped%22%20style%3D%22shape%3Dnote%3BwhiteSpace%3Dwrap%3Bhtml%3D1%3BbackgroundOutline%3D1%3BdarkOpacity%3D0.05%3Bsize%3D17%3BfillColor%3D%23FFF2CC%3B%22%20vertex%3D%221%22%20parent%3D%221%22%3E%3CmxGeometry%20y%3D%22740%22%20width%3D%22140%22%20height%3D%2260%22%20as%3D%22geometry%22%2F%3E%3C%2FmxCell%3E%3C%2Froot%3E%3C%2FmxGraphModel%3E&lt;/span&gt;" style="shape=note;whiteSpace=wrap;html=1;backgroundOutline=1;darkOpacity=0.05;size=17;fillColor=#FFF2CC;" parent="1" vertex="1">
          <mxGeometry x="-100" y="-445" width="200" height="90" as="geometry" />
        </mxCell>
        <mxCell id="NRTWiq4-zaDcEtuE9q8b-1" style="edgeStyle=orthogonalEdgeStyle;curved=1;rounded=0;orthogonalLoop=1;jettySize=auto;html=1;endArrow=block;endFill=1;entryX=0.5;entryY=0;entryDx=0;entryDy=0;entryPerimeter=0;exitX=0.5;exitY=1;exitDx=0;exitDy=0;" edge="1" parent="1" source="EpLoNu7SxfJ4iQwhgqlz-14" target="EpLoNu7SxfJ4iQwhgqlz-10">
          <mxGeometry relative="1" as="geometry">
            <mxPoint x="-670" y="-600" as="sourcePoint" />
            <mxPoint x="-703" y="-575" as="targetPoint" />
          </mxGeometry>
        </mxCell>
        <mxCell id="NRTWiq4-zaDcEtuE9q8b-2" style="edgeStyle=orthogonalEdgeStyle;curved=1;rounded=0;orthogonalLoop=1;jettySize=auto;html=1;endArrow=block;endFill=1;exitX=0.5;exitY=1;exitDx=0;exitDy=0;exitPerimeter=0;entryX=0.582;entryY=-0.051;entryDx=0;entryDy=0;entryPerimeter=0;" edge="1" parent="1" source="EpLoNu7SxfJ4iQwhgqlz-10" target="NRTWiq4-zaDcEtuE9q8b-3">
          <mxGeometry relative="1" as="geometry">
            <mxPoint x="-437" y="-590" as="sourcePoint" />
            <mxPoint x="-670" y="-460" as="targetPoint" />
          </mxGeometry>
        </mxCell>
        <mxCell id="NRTWiq4-zaDcEtuE9q8b-3" value="&lt;b&gt;Sub-Claim C6:&lt;br&gt;&lt;/b&gt;The system&#39;s performance is optimized to avoid congestion or packet loss under typical network loads." style="rounded=0;whiteSpace=wrap;html=1;" vertex="1" parent="1">
          <mxGeometry x="-850" y="-450" width="190" height="80" as="geometry" />
        </mxCell>
        <mxCell id="NRTWiq4-zaDcEtuE9q8b-5" style="edgeStyle=orthogonalEdgeStyle;curved=1;rounded=0;orthogonalLoop=1;jettySize=auto;html=1;endArrow=block;endFill=1;exitX=0.5;exitY=1;exitDx=0;exitDy=0;entryX=0.5;entryY=0;entryDx=0;entryDy=0;" edge="1" parent="1" source="NRTWiq4-zaDcEtuE9q8b-3" target="EpLoNu7SxfJ4iQwhgqlz-19">
          <mxGeometry relative="1" as="geometry">
            <mxPoint x="-705" y="-477" as="sourcePoint" />
            <mxPoint x="-691" y="-434" as="targetPoint" />
          </mxGeometry>
        </mxCell>
        <mxCell id="NRTWiq4-zaDcEtuE9q8b-6" value="&lt;b&gt;Sub-Claim C7:&lt;br&gt;&lt;/b&gt;The&amp;nbsp;&lt;strong&gt;Emerging Threats Open ruleset&lt;/strong&gt;&amp;nbsp;contains regular updates for detecting Emotet signatures." style="rounded=0;whiteSpace=wrap;html=1;" vertex="1" parent="1">
          <mxGeometry x="-570" y="-450" width="190" height="80" as="geometry" />
        </mxCell>
        <mxCell id="NRTWiq4-zaDcEtuE9q8b-8" value="&lt;b&gt;Sub-Claim C8:&lt;br&gt;&lt;/b&gt;Suricata’s rules are configured to monitor the correct network protocols and ports associated with Emotet" style="rounded=0;whiteSpace=wrap;html=1;" vertex="1" parent="1">
          <mxGeometry x="-330" y="-450" width="190" height="80" as="geometry" />
        </mxCell>
        <mxCell id="NRTWiq4-zaDcEtuE9q8b-10" value="&lt;b&gt;Sub-Claim C9:&lt;br&gt;&lt;/b&gt;Suricata’s rules are configured to monitor the correct network protocols and ports associated with Emotet" style="rounded=0;whiteSpace=wrap;html=1;" vertex="1" parent="1">
          <mxGeometry x="-80" y="-310" width="190" height="80" as="geometry" />
        </mxCell>
        <mxCell id="NRTWiq4-zaDcEtuE9q8b-11" style="edgeStyle=orthogonalEdgeStyle;curved=1;rounded=0;orthogonalLoop=1;jettySize=auto;html=1;endArrow=block;endFill=1;exitX=0.5;exitY=1;exitDx=0;exitDy=0;exitPerimeter=0;entryX=0.5;entryY=0;entryDx=0;entryDy=0;" edge="1" parent="1" target="EpLoNu7SxfJ4iQwhgqlz-26">
          <mxGeometry relative="1" as="geometry">
            <mxPoint x="20" y="-230" as="sourcePoint" />
            <mxPoint x="20" y="-170" as="targetPoint" />
          </mxGeometry>
        </mxCell>
        <mxCell id="NRTWiq4-zaDcEtuE9q8b-12" style="edgeStyle=orthogonalEdgeStyle;curved=1;rounded=0;orthogonalLoop=1;jettySize=auto;html=1;endArrow=block;endFill=1;entryX=0.5;entryY=0;entryDx=0;entryDy=0;exitX=0.5;exitY=1;exitDx=0;exitDy=0;" edge="1" parent="1" source="NRTWiq4-zaDcEtuE9q8b-8" target="zcjgjJbBtfx0ok88irLS-9">
          <mxGeometry relative="1" as="geometry">
            <mxPoint x="-239" y="-370" as="sourcePoint" />
            <mxPoint x="-210" y="-325" as="targetPoint" />
          </mxGeometry>
        </mxCell>
        <mxCell id="NRTWiq4-zaDcEtuE9q8b-15" value="" style="edgeStyle=orthogonalEdgeStyle;curved=1;rounded=0;orthogonalLoop=1;jettySize=auto;html=1;endArrow=block;endFill=1;exitX=0.5;exitY=1;exitDx=0;exitDy=0;" edge="1" parent="1" source="EpLoNu7SxfJ4iQwhgqlz-26" target="NRTWiq4-zaDcEtuE9q8b-13">
          <mxGeometry relative="1" as="geometry">
            <mxPoint x="20" y="-30" as="sourcePoint" />
            <mxPoint x="16" y="40" as="targetPoint" />
          </mxGeometry>
        </mxCell>
        <mxCell id="NRTWiq4-zaDcEtuE9q8b-13" value="" style="ellipse;whiteSpace=wrap;html=1;aspect=fixed;fillColor=#CCCCCC;" vertex="1" parent="1">
          <mxGeometry x="5" y="-20" width="30" height="30" as="geometry" />
        </mxCell>
        <mxCell id="NRTWiq4-zaDcEtuE9q8b-16" style="edgeStyle=orthogonalEdgeStyle;curved=1;rounded=0;orthogonalLoop=1;jettySize=auto;html=1;endArrow=block;endFill=1;exitX=0.5;exitY=1;exitDx=0;exitDy=0;entryX=0.5;entryY=0;entryDx=0;entryDy=0;" edge="1" parent="1" source="NRTWiq4-zaDcEtuE9q8b-6" target="EpLoNu7SxfJ4iQwhgqlz-18">
          <mxGeometry relative="1" as="geometry">
            <mxPoint x="-475.5" y="-370" as="sourcePoint" />
            <mxPoint x="-475" y="-320" as="targetPoint" />
          </mxGeometry>
        </mxCell>
      </root>
    </mxGraphModel>
  </diagram>
</mxfile>
